<svg width="90" height="90" viewBox="0 0 90 90" fill="none" xmlns="http://www.w3.org/2000/svg">
<path fill-rule="evenodd" clip-rule="evenodd" d="M41.0026 89.8258C49.3026 90.5458 57.1726 88.9958 64.0926 85.7458L67.6026 84.0558C67.9626 83.8758 68.3126 83.6758 68.6326 83.4358L71.6726 81.2358C83.1426 72.7758 90.4626 59.0158 89.9726 43.5558C89.2326 19.7158 69.5826 0.375786 45.7226 0.00578626C19.2226 -0.414214 -2.14736 22.0858 0.172645 48.9858C2.03164 70.5758 19.4126 87.9558 41.0026 89.8258ZM60.1126 81.7458H51.3826C34.8326 81.7458 22.3426 69.9358 22.3426 54.2858V47.1758C22.3426 46.8358 22.7726 46.7058 22.9726 46.9858C27.5526 53.4058 34.8626 57.7458 43.1926 58.3058C43.3526 58.3158 43.4826 58.4358 43.5026 58.5958C44.9026 68.4558 51.0826 76.6558 60.2626 81.0958C60.5926 81.2558 60.4726 81.7458 60.1126 81.7458ZM67.6726 79.4358C67.6726 79.6758 67.4226 79.8458 67.1926 79.7458L63.2626 78.0658C54.7426 74.4258 48.9826 67.2358 47.5426 58.6158C47.5126 58.4158 47.6526 58.2358 47.8526 58.2158C55.7326 57.3858 62.6426 53.1658 67.0426 47.0058C67.2426 46.7358 67.6726 46.8658 67.6726 47.1958V79.4358ZM26.8226 17.1658C31.0426 11.7458 37.6226 8.24579 45.0126 8.24579C52.4226 8.24579 59.0126 11.7658 63.2326 17.2158C63.4526 17.5058 63.1526 17.8958 62.8126 17.7558C61.7326 17.2858 60.5826 16.9558 59.3726 16.7758C58.6526 16.6758 57.9226 16.6158 57.2026 16.6158C53.2826 16.6158 49.5926 18.1358 46.7826 20.9058C46.2426 21.4458 45.7426 22.0258 45.2926 22.6258C45.1526 22.8158 44.8726 22.8158 44.7426 22.6258C42.0426 18.9858 37.7026 16.6158 32.8126 16.6158C30.8326 16.6158 28.9526 17.0058 27.2226 17.7058C26.8926 17.8458 26.6026 17.4558 26.8226 17.1658ZM32.8126 20.6158C38.7126 20.6158 43.6026 25.4158 43.6026 31.3058V37.3558C43.6026 38.1258 44.2326 38.7558 45.0126 38.7558C45.7826 38.7558 46.4126 38.1258 46.4126 37.3558V31.3058C46.4126 25.4158 51.3126 20.6158 57.2026 20.6158C57.7226 20.6158 58.2626 20.6558 58.8026 20.7358C64.5026 21.5658 68.3626 26.8858 68.0326 32.6458C67.3326 44.7358 57.2726 54.3658 45.0126 54.3658C32.2926 54.3658 21.9526 44.0258 21.9526 31.3058C21.9526 25.4158 26.9226 20.6158 32.8126 20.6158ZM39.1696 31.3068C39.1696 27.7998 36.3166 24.9478 32.8096 24.9478C29.3036 24.9478 26.4496 27.8008 26.4496 31.3068C26.4496 34.8128 29.3026 37.6658 32.8096 37.6658C36.3166 37.6668 39.1696 34.8138 39.1696 31.3068ZM63.5646 31.3078C63.5646 34.8138 60.7106 37.6668 57.2046 37.6668C53.6976 37.6668 50.8446 34.8138 50.8446 31.3078C50.8446 27.8018 53.6976 24.9488 57.2046 24.9488C60.7116 24.9488 63.5646 27.8018 63.5646 31.3078Z" fill="white"/>
</svg>
